<svg width="209" height="16" viewBox="0 0 209 16" fill="none" xmlns="http://www.w3.org/2000/svg">
<g clip-path="url(#clip0_2214_5600)">
<g filter="url(#filter0_ddd_2214_5600)">
<path fill-rule="evenodd" clip-rule="evenodd" d="M8.42105 8V16C3.77023 16 0 12.4183 0 8C0 3.58172 3.77023 0 8.42105 0V8ZM42.1053 16H33.6842V0H42.1053V16ZM44.2105 4V8V12V16C46.5359 16 48.4211 14.2091 48.4211 12C48.4211 9.79086 46.5359 8 44.2105 8C46.5359 8 48.4211 6.20914 48.4211 4C48.4211 1.79086 46.5359 0 44.2105 0V4ZM12.6316 16L21.0526 0L29.4737 16H12.6316ZM61.0526 0H52.6316V16H61.0526V0ZM75.7895 16H65.2632V0L75.7895 16ZM69.4737 0L80 16V0H69.4737Z" fill="#0F62FE"/>
</g>
<path fill-rule="evenodd" clip-rule="evenodd" d="M88.8 16L96.8 8L104.8 16H88.8Z" fill="#0F62FE"/>
<path fill-rule="evenodd" clip-rule="evenodd" d="M88.8 2.5332e-07L96.8 8L104.8 2.5332e-07H88.8Z" fill="#0F62FE"/>
<g clip-path="url(#clip1_2214_5600)">
<rect x="112.8" width="1" height="16" fill="#E8E9ED"/>
<path d="M122.724 12.5V3.56002H125.652C126.58 3.56002 127.384 3.74802 128.064 4.12402C128.752 4.49202 129.284 5.01202 129.66 5.68402C130.036 6.35602 130.224 7.13602 130.224 8.02402C130.224 8.90402 130.036 9.68402 129.66 10.364C129.284 11.036 128.752 11.56 128.064 11.936C127.384 12.312 126.58 12.5 125.652 12.5H122.724ZM124.14 11.24H125.676C126.308 11.24 126.856 11.108 127.32 10.844C127.792 10.58 128.156 10.208 128.412 9.72802C128.668 9.24802 128.796 8.68002 128.796 8.02402C128.796 7.36802 128.664 6.80402 128.4 6.33202C128.144 5.85202 127.784 5.48002 127.32 5.21602C126.856 4.95202 126.308 4.82002 125.676 4.82002H124.14V11.24Z" fill="#121B3A"/>
<path d="M134.535 12.644C133.887 12.644 133.311 12.496 132.807 12.2C132.311 11.896 131.923 11.488 131.643 10.976C131.363 10.456 131.223 9.87602 131.223 9.23602C131.223 8.58002 131.363 8.00002 131.643 7.49602C131.931 6.99202 132.315 6.59602 132.795 6.30802C133.275 6.01202 133.819 5.86402 134.427 5.86402C134.915 5.86402 135.351 5.94802 135.735 6.11602C136.119 6.28402 136.443 6.51602 136.707 6.81202C136.971 7.10002 137.171 7.43202 137.307 7.80802C137.451 8.18402 137.523 8.58402 137.523 9.00802C137.523 9.11202 137.519 9.22002 137.511 9.33202C137.503 9.44402 137.487 9.54802 137.463 9.64402H132.291V8.56402H136.695L136.047 9.05602C136.127 8.66402 136.099 8.31602 135.963 8.01202C135.835 7.70002 135.635 7.45602 135.363 7.28002C135.099 7.09602 134.787 7.00402 134.427 7.00402C134.067 7.00402 133.747 7.09602 133.467 7.28002C133.187 7.45602 132.971 7.71202 132.819 8.04802C132.667 8.37602 132.607 8.77602 132.639 9.24802C132.599 9.68802 132.659 10.072 132.819 10.4C132.987 10.728 133.219 10.984 133.515 11.168C133.819 11.352 134.163 11.444 134.547 11.444C134.939 11.444 135.271 11.356 135.543 11.18C135.823 11.004 136.043 10.776 136.203 10.496L137.307 11.036C137.179 11.34 136.979 11.616 136.707 11.864C136.443 12.104 136.123 12.296 135.747 12.44C135.379 12.576 134.975 12.644 134.535 12.644Z" fill="#121B3A"/>
<path d="M141.246 12.644C140.582 12.644 139.998 12.48 139.494 12.152C138.998 11.824 138.65 11.384 138.45 10.832L139.494 10.34C139.67 10.708 139.91 11 140.214 11.216C140.526 11.432 140.87 11.54 141.246 11.54C141.566 11.54 141.826 11.468 142.026 11.324C142.226 11.18 142.326 10.984 142.326 10.736C142.326 10.576 142.282 10.448 142.194 10.352C142.106 10.248 141.994 10.164 141.858 10.1C141.73 10.036 141.598 9.98802 141.462 9.95602L140.442 9.66802C139.882 9.50802 139.462 9.26802 139.182 8.94802C138.91 8.62002 138.774 8.24002 138.774 7.80802C138.774 7.41602 138.874 7.07602 139.074 6.78802C139.274 6.49202 139.55 6.26402 139.902 6.10402C140.254 5.94402 140.65 5.86402 141.09 5.86402C141.682 5.86402 142.21 6.01202 142.674 6.30802C143.138 6.59602 143.466 7.00002 143.658 7.52002L142.614 8.01202C142.486 7.70002 142.282 7.45202 142.002 7.26802C141.73 7.08402 141.422 6.99202 141.078 6.99202C140.782 6.99202 140.546 7.06402 140.37 7.20802C140.194 7.34402 140.106 7.52402 140.106 7.74802C140.106 7.90002 140.146 8.02802 140.226 8.13202C140.306 8.22802 140.41 8.30802 140.538 8.37202C140.666 8.42802 140.798 8.47602 140.934 8.51602L141.99 8.82802C142.526 8.98002 142.938 9.22002 143.226 9.54802C143.514 9.86802 143.658 10.252 143.658 10.7C143.658 11.084 143.554 11.424 143.346 11.72C143.146 12.008 142.866 12.236 142.506 12.404C142.146 12.564 141.726 12.644 141.246 12.644Z" fill="#121B3A"/>
<path d="M144.987 12.5V6.00802H146.343V12.5H144.987ZM144.987 5.12002V3.56002H146.343V5.12002H144.987Z" fill="#121B3A"/>
<path d="M151.06 15.14C150.588 15.14 150.152 15.064 149.752 14.912C149.352 14.76 149.008 14.548 148.72 14.276C148.432 14.012 148.216 13.7 148.072 13.34L149.32 12.824C149.432 13.128 149.636 13.38 149.932 13.58C150.236 13.78 150.608 13.88 151.048 13.88C151.392 13.88 151.7 13.812 151.972 13.676C152.244 13.548 152.46 13.356 152.62 13.1C152.78 12.852 152.86 12.552 152.86 12.2V10.736L153.1 11.012C152.876 11.428 152.564 11.744 152.164 11.96C151.772 12.176 151.328 12.284 150.832 12.284C150.232 12.284 149.692 12.144 149.212 11.864C148.732 11.584 148.352 11.2 148.072 10.712C147.8 10.224 147.664 9.67602 147.664 9.06802C147.664 8.45202 147.8 7.90402 148.072 7.42402C148.352 6.94402 148.728 6.56402 149.2 6.28402C149.672 6.00402 150.212 5.86402 150.82 5.86402C151.316 5.86402 151.756 5.97202 152.14 6.18802C152.532 6.39602 152.852 6.70002 153.1 7.10002L152.92 7.43602V6.00802H154.204V12.2C154.204 12.76 154.068 13.26 153.796 13.7C153.532 14.148 153.164 14.5 152.692 14.756C152.22 15.012 151.676 15.14 151.06 15.14ZM150.988 11.024C151.348 11.024 151.668 10.94 151.948 10.772C152.228 10.596 152.448 10.364 152.608 10.076C152.776 9.78002 152.86 9.44802 152.86 9.08002C152.86 8.71202 152.776 8.38002 152.608 8.08402C152.44 7.78802 152.216 7.55602 151.936 7.38802C151.656 7.21202 151.34 7.12402 150.988 7.12402C150.62 7.12402 150.292 7.21202 150.004 7.38802C149.716 7.55602 149.488 7.78802 149.32 8.08402C149.16 8.37202 149.08 8.70402 149.08 9.08002C149.08 9.44002 149.16 9.76802 149.32 10.064C149.488 10.36 149.716 10.596 150.004 10.772C150.292 10.94 150.62 11.024 150.988 11.024Z" fill="#121B3A"/>
<path d="M155.791 12.5V6.00802H157.087V7.28002L156.931 7.11202C157.091 6.70402 157.347 6.39602 157.699 6.18802C158.051 5.97202 158.459 5.86402 158.923 5.86402C159.403 5.86402 159.827 5.96802 160.195 6.17602C160.563 6.38402 160.851 6.67202 161.059 7.04002C161.267 7.40802 161.371 7.83202 161.371 8.31202V12.5H160.027V8.67202C160.027 8.34402 159.967 8.06802 159.847 7.84402C159.727 7.61202 159.555 7.43602 159.331 7.31602C159.115 7.18802 158.867 7.12402 158.587 7.12402C158.307 7.12402 158.055 7.18802 157.831 7.31602C157.615 7.43602 157.447 7.61202 157.327 7.84402C157.207 8.07602 157.147 8.35202 157.147 8.67202V12.5H155.791Z" fill="#121B3A"/>
<path d="M168.184 12.644C167.624 12.644 167.104 12.54 166.624 12.332C166.144 12.116 165.736 11.824 165.4 11.456C165.064 11.088 164.816 10.664 164.656 10.184L165.856 9.68002C166.072 10.232 166.388 10.656 166.804 10.952C167.22 11.248 167.7 11.396 168.244 11.396C168.564 11.396 168.844 11.348 169.084 11.252C169.324 11.148 169.508 11.004 169.636 10.82C169.772 10.636 169.84 10.424 169.84 10.184C169.84 9.85602 169.748 9.59602 169.564 9.40402C169.38 9.21202 169.108 9.06002 168.748 8.94802L167.068 8.42002C166.396 8.21202 165.884 7.89602 165.532 7.47202C165.18 7.04002 165.004 6.53602 165.004 5.96002C165.004 5.45602 165.128 5.01602 165.376 4.64002C165.624 4.25602 165.964 3.95602 166.396 3.74002C166.836 3.52402 167.336 3.41602 167.896 3.41602C168.432 3.41602 168.92 3.51202 169.36 3.70402C169.8 3.88802 170.176 4.14402 170.488 4.47202C170.808 4.80002 171.04 5.18002 171.184 5.61202L170.008 6.12802C169.832 5.65602 169.556 5.29202 169.18 5.03602C168.812 4.78002 168.384 4.65202 167.896 4.65202C167.6 4.65202 167.34 4.70402 167.116 4.80802C166.892 4.90402 166.716 5.04802 166.588 5.24002C166.468 5.42402 166.408 5.64002 166.408 5.88802C166.408 6.17602 166.5 6.43202 166.684 6.65602C166.868 6.88002 167.148 7.04802 167.524 7.16002L169.084 7.65202C169.796 7.86802 170.332 8.18002 170.692 8.58802C171.052 8.98802 171.232 9.48802 171.232 10.088C171.232 10.584 171.1 11.024 170.836 11.408C170.58 11.792 170.224 12.096 169.768 12.32C169.312 12.536 168.784 12.644 168.184 12.644Z" fill="#121B3A"/>
<path d="M173.266 15.152C173.106 15.152 172.946 15.136 172.786 15.104C172.634 15.08 172.494 15.04 172.366 14.984V13.82C172.462 13.844 172.578 13.864 172.714 13.88C172.85 13.904 172.982 13.916 173.11 13.916C173.486 13.916 173.762 13.832 173.938 13.664C174.122 13.504 174.286 13.252 174.43 12.908L174.862 11.924L174.838 13.064L172.03 6.00802H173.482L175.558 11.42H175.066L177.13 6.00802H178.594L175.726 13.208C175.574 13.592 175.382 13.928 175.15 14.216C174.926 14.512 174.658 14.74 174.346 14.9C174.042 15.068 173.682 15.152 173.266 15.152Z" fill="#121B3A"/>
<path d="M181.922 12.644C181.258 12.644 180.674 12.48 180.17 12.152C179.674 11.824 179.326 11.384 179.126 10.832L180.17 10.34C180.346 10.708 180.586 11 180.89 11.216C181.202 11.432 181.546 11.54 181.922 11.54C182.242 11.54 182.502 11.468 182.702 11.324C182.902 11.18 183.002 10.984 183.002 10.736C183.002 10.576 182.958 10.448 182.87 10.352C182.782 10.248 182.67 10.164 182.534 10.1C182.406 10.036 182.274 9.98802 182.138 9.95602L181.118 9.66802C180.558 9.50802 180.138 9.26802 179.858 8.94802C179.586 8.62002 179.45 8.24002 179.45 7.80802C179.45 7.41602 179.55 7.07602 179.75 6.78802C179.95 6.49202 180.226 6.26402 180.578 6.10402C180.93 5.94402 181.326 5.86402 181.766 5.86402C182.358 5.86402 182.886 6.01202 183.35 6.30802C183.814 6.59602 184.142 7.00002 184.334 7.52002L183.29 8.01202C183.162 7.70002 182.958 7.45202 182.678 7.26802C182.406 7.08402 182.098 6.99202 181.754 6.99202C181.458 6.99202 181.222 7.06402 181.046 7.20802C180.87 7.34402 180.782 7.52402 180.782 7.74802C180.782 7.90002 180.822 8.02802 180.902 8.13202C180.982 8.22802 181.086 8.30802 181.214 8.37202C181.342 8.42802 181.474 8.47602 181.61 8.51602L182.666 8.82802C183.202 8.98002 183.614 9.22002 183.902 9.54802C184.19 9.86802 184.334 10.252 184.334 10.7C184.334 11.084 184.23 11.424 184.022 11.72C183.822 12.008 183.542 12.236 183.182 12.404C182.822 12.564 182.402 12.644 181.922 12.644Z" fill="#121B3A"/>
<path d="M188.47 12.572C187.79 12.572 187.262 12.38 186.886 11.996C186.51 11.612 186.322 11.072 186.322 10.376V7.23202H185.182V6.00802H185.362C185.666 6.00802 185.902 5.92002 186.07 5.74402C186.238 5.56802 186.322 5.32802 186.322 5.02402V4.52002H187.678V6.00802H189.154V7.23202H187.678V10.316C187.678 10.54 187.714 10.732 187.786 10.892C187.858 11.044 187.974 11.164 188.134 11.252C188.294 11.332 188.502 11.372 188.758 11.372C188.822 11.372 188.894 11.368 188.974 11.36C189.054 11.352 189.13 11.344 189.202 11.336V12.5C189.09 12.516 188.966 12.532 188.83 12.548C188.694 12.564 188.574 12.572 188.47 12.572Z" fill="#121B3A"/>
<path d="M193.457 12.644C192.809 12.644 192.233 12.496 191.729 12.2C191.233 11.896 190.845 11.488 190.565 10.976C190.285 10.456 190.145 9.87602 190.145 9.23602C190.145 8.58002 190.285 8.00002 190.565 7.49602C190.853 6.99202 191.237 6.59602 191.717 6.30802C192.197 6.01202 192.741 5.86402 193.349 5.86402C193.837 5.86402 194.273 5.94802 194.657 6.11602C195.041 6.28402 195.365 6.51602 195.629 6.81202C195.893 7.10002 196.093 7.43202 196.229 7.80802C196.373 8.18402 196.445 8.58402 196.445 9.00802C196.445 9.11202 196.441 9.22002 196.433 9.33202C196.425 9.44402 196.409 9.54802 196.385 9.64402H191.213V8.56402H195.617L194.969 9.05602C195.049 8.66402 195.021 8.31602 194.885 8.01202C194.757 7.70002 194.557 7.45602 194.285 7.28002C194.021 7.09602 193.709 7.00402 193.349 7.00402C192.989 7.00402 192.669 7.09602 192.389 7.28002C192.109 7.45602 191.893 7.71202 191.741 8.04802C191.589 8.37602 191.529 8.77602 191.561 9.24802C191.521 9.68802 191.581 10.072 191.741 10.4C191.909 10.728 192.141 10.984 192.437 11.168C192.741 11.352 193.085 11.444 193.469 11.444C193.861 11.444 194.193 11.356 194.465 11.18C194.745 11.004 194.965 10.776 195.125 10.496L196.229 11.036C196.101 11.34 195.901 11.616 195.629 11.864C195.365 12.104 195.045 12.296 194.669 12.44C194.301 12.576 193.897 12.644 193.457 12.644Z" fill="#121B3A"/>
<path d="M197.768 12.5V6.00802H199.064V7.41202L198.896 7.19602C199.032 6.75602 199.28 6.42402 199.64 6.20002C200 5.97602 200.412 5.86402 200.876 5.86402C201.396 5.86402 201.856 6.00402 202.256 6.28402C202.664 6.55602 202.936 6.92002 203.072 7.37602L202.688 7.41202C202.88 6.89202 203.172 6.50402 203.564 6.24802C203.964 5.99202 204.42 5.86402 204.932 5.86402C205.38 5.86402 205.784 5.96802 206.144 6.17602C206.512 6.38402 206.804 6.67202 207.02 7.04002C207.236 7.40802 207.344 7.82802 207.344 8.30002V12.5H205.988V8.67202C205.988 8.34402 205.928 8.06802 205.808 7.84402C205.696 7.61202 205.536 7.43602 205.328 7.31602C205.128 7.18802 204.892 7.12402 204.62 7.12402C204.348 7.12402 204.108 7.18802 203.9 7.31602C203.692 7.43602 203.528 7.61202 203.408 7.84402C203.288 8.07602 203.228 8.35202 203.228 8.67202V12.5H201.884V8.67202C201.884 8.34402 201.824 8.06802 201.704 7.84402C201.592 7.61202 201.432 7.43602 201.224 7.31602C201.024 7.18802 200.784 7.12402 200.504 7.12402C200.232 7.12402 199.992 7.18802 199.784 7.31602C199.576 7.43602 199.412 7.61202 199.292 7.84402C199.18 8.07602 199.124 8.35202 199.124 8.67202V12.5H197.768Z" fill="#121B3A"/>
</g>
</g>
<defs>
<filter id="filter0_ddd_2214_5600" x="-200" y="-120" width="480" height="416" filterUnits="userSpaceOnUse" color-interpolation-filters="sRGB">
<feFlood flood-opacity="0" result="BackgroundImageFix"/>
<feColorMatrix in="SourceAlpha" type="matrix" values="0 0 0 0 0 0 0 0 0 0 0 0 0 0 0 0 0 0 127 0" result="hardAlpha"/>
<feOffset dy="80"/>
<feGaussianBlur stdDeviation="100"/>
<feColorMatrix type="matrix" values="0 0 0 0 0 0 0 0 0 0 0 0 0 0 0 0 0 0 0.05 0"/>
<feBlend mode="normal" in2="BackgroundImageFix" result="effect1_dropShadow_2214_5600"/>
<feColorMatrix in="SourceAlpha" type="matrix" values="0 0 0 0 0 0 0 0 0 0 0 0 0 0 0 0 0 0 127 0" result="hardAlpha"/>
<feOffset dy="40"/>
<feGaussianBlur stdDeviation="50"/>
<feColorMatrix type="matrix" values="0 0 0 0 0 0 0 0 0 0 0 0 0 0 0 0 0 0 0.1 0"/>
<feBlend mode="normal" in2="effect1_dropShadow_2214_5600" result="effect2_dropShadow_2214_5600"/>
<feColorMatrix in="SourceAlpha" type="matrix" values="0 0 0 0 0 0 0 0 0 0 0 0 0 0 0 0 0 0 127 0" result="hardAlpha"/>
<feOffset dy="-20"/>
<feGaussianBlur stdDeviation="25"/>
<feColorMatrix type="matrix" values="0 0 0 0 0 0 0 0 0 0 0 0 0 0 0 0 0 0 0.05 0"/>
<feBlend mode="normal" in2="effect2_dropShadow_2214_5600" result="effect3_dropShadow_2214_5600"/>
<feBlend mode="normal" in="SourceGraphic" in2="effect3_dropShadow_2214_5600" result="shape"/>
</filter>
<clipPath id="clip0_2214_5600">
<rect width="208.8" height="16" fill="white"/>
</clipPath>
<clipPath id="clip1_2214_5600">
<rect width="96" height="16" fill="white" transform="translate(112.8)"/>
</clipPath>
</defs>
</svg>
